<svg width="149" height="141" viewBox="0 0 149 141" fill="none" xmlns="http://www.w3.org/2000/svg">
<path d="M147.687 41.6661L141.62 0.5H7.38582L1.31332 41.6661C-8.54673 112.249 74.5 140.5 74.5 140.5C74.5 140.5 157.547 112.249 147.687 41.6661Z" fill="#242528"/>
<path d="M13.384 45.4092C10.7451 68.9891 20.1954 89.823 41.505 107.365C54.2771 117.879 67.9309 124.306 74.5002 127.052C81.0756 124.306 94.7232 117.879 107.495 107.365C128.805 89.823 138.255 68.9891 135.616 45.4092H13.384Z" fill="#9E62E9"/>
<path d="M72.0291 71.5344L70.9488 69.71C69.502 70.2617 67.8753 70.5689 66.1243 70.7194C66.1243 70.7194 62.5851 71.8667 60.2505 71.7915C60.2505 71.7915 65.5655 72.1175 69.5766 71.014C69.5766 71.014 65.1867 72.8949 60.2505 72.6755C60.2505 72.6755 65.1495 73.2836 70.2347 71.7037C70.2347 71.7037 66.1119 73.2711 62.6037 73.246C62.6037 73.246 67.7883 73.6034 72.0354 71.5281L72.0291 71.5344Z" fill="white"/>
<path d="M74.5 66.0615V68.5004C74.5 68.5004 75.6487 68.9957 76.4993 70.6885C76.4993 70.6885 76.2448 68.7512 75.332 68.1806C75.332 68.1806 76.0088 68.2183 76.431 68.9205C76.431 68.9205 75.9902 67.6853 75.1333 67.096C75.1333 67.096 75.5928 67.2527 75.7915 67.4722C75.7915 67.4722 75.2078 66.2371 74.5062 66.0741L74.5 66.0615Z" fill="white"/>
<path d="M47.242 54.375C47.1675 54.4565 47.093 54.5443 47.0247 54.6258C43.9015 58.3186 41.4054 62.8515 39.5737 68.1305L47.2482 57.9549V54.375H47.242Z" fill="#ADE962"/>
<path d="M37.2144 79.5664L41.8215 71.4473L35.0101 80.6385C34.8735 81.3658 34.768 82.1495 34.7059 82.9833L34.501 86.4755L43.0199 74.8203L39.7725 77.7357L44.3797 70.1934L37.2144 79.5727V79.5664Z" fill="#ADE962"/>
<path d="M92.0907 72.5506C88.9117 73.0333 84.8509 72.0364 84.8509 72.0364C89.7499 72.8515 94.978 71.1023 94.978 71.1023C85.3973 73.0459 77.6856 69.748 77.6856 69.748L77.2075 71.4471C79.5918 72.7951 84.0996 73.1712 85.7575 73.2653C84.4597 73.1085 83.4601 72.4064 83.4601 72.4064C87.9555 73.4032 92.0907 72.5568 92.0907 72.5568V72.5506Z" fill="white"/>
<path d="M51.4643 77.9106C55.4568 77.8605 59.4368 77.315 63.3485 76.4937C59.5796 76.9953 55.7175 76.7821 52.0231 75.8667C51.0607 75.6285 50.0983 75.3401 49.1048 75.2899C48.1114 75.2398 47.062 75.4655 46.3232 76.1301C45.5781 76.7946 45.1931 77.9545 45.6774 78.8322C45.1062 78.9326 44.5846 79.2962 44.2928 79.804C44.001 80.3056 43.9327 80.9451 44.1189 81.4968C44.2121 81.7727 44.3611 82.0235 44.5722 82.2241C44.6591 82.3056 44.7585 82.3683 44.8578 82.431C49.2042 79.641 54.1839 78.8009 55.1401 78.5501C53.8983 78.4498 52.6689 78.2554 51.4705 77.9106H51.4643Z" fill="#ADE962"/>
<path d="M101.976 54.6258C101.901 54.538 101.827 54.4565 101.758 54.375V57.9549L109.433 68.1305C107.601 62.8452 105.105 58.3186 101.982 54.6258H101.976Z" fill="#ADE962"/>
<path d="M69.9117 66.6071C70.3774 66.4817 70.9735 65.6353 71.4578 64.9582C72.2339 63.861 73.1156 62.6133 74.5003 62.6133C75.8849 62.6133 76.7666 63.861 77.5427 64.9582C78.0208 65.6353 78.6231 66.4817 79.0888 66.6071C85.4966 68.0303 90.5694 67.6604 93.6988 67.0961C96.0334 66.676 97.6602 66.0867 98.455 65.7607V53.629C86.3038 46.6384 74.7238 47.6541 74.6058 47.6666H74.4009C74.2829 47.6541 62.7092 46.6384 50.5518 53.629V65.7607C52.5138 66.5632 59.5363 68.9206 69.9179 66.6133L69.9117 66.6071Z" fill="#B7D0ED"/>
<path d="M75.5 47.616V62.8511C76.3444 63.2649 76.9716 64.1489 77.5428 64.9577C78.0209 65.6348 78.6232 66.4812 79.0889 66.6066C80.4673 66.9138 81.7774 67.1333 83.0254 67.29V48.174C79.5235 47.6035 76.8225 47.5847 75.5 47.6223V47.616Z" fill="#E9F7FE"/>
<path d="M84.0562 48.3496V67.4029C85.447 67.5408 86.7447 67.5973 87.9493 67.591V49.2462C86.5833 48.87 85.2793 48.5753 84.0562 48.3496Z" fill="#E9F7FE"/>
<path d="M88.5142 49.4092V67.591C89.0978 67.5785 89.6566 67.5534 90.1906 67.522V49.9296C89.6256 49.7415 89.0668 49.5659 88.5142 49.4092Z" fill="#E9F7FE"/>
<path d="M89.5137 76.9703C91.7986 77.3089 94.0277 78.0048 96.0705 79.0205C96.6603 79.3152 97.2688 79.6412 97.9332 79.6788C98.6038 79.7164 99.3551 79.3403 99.4482 78.7196C100.274 78.845 100.864 79.5033 101.516 79.9923C102.168 80.4813 103.205 80.7823 103.782 80.2243C104.211 79.8105 104.149 79.1145 103.813 78.6318C103.478 78.1553 102.932 77.8418 102.41 77.5471C103.13 77.9359 103.956 78.149 104.788 78.1678C103.571 76.2305 101.864 74.5566 99.8518 73.334C98.908 74.9202 97.1322 75.9484 95.2695 76.4437C93.4068 76.939 91.4447 76.9641 89.5137 76.9703Z" fill="#ADE962"/>
<path d="M74.5 44.9763C75.7045 44.8697 85.4218 44.2365 96.6665 49.5844C94.5802 48.0045 92.3139 46.6879 89.8799 45.6409C81.8516 42.1989 74.6863 42.9136 74.618 42.9261H74.382C74.3137 42.9199 67.1484 42.1989 59.12 45.6409C56.6861 46.6879 54.4198 48.0045 52.3335 49.5844C63.5782 44.2365 73.2954 44.8697 74.5 44.9763Z" fill="#ADE962"/>
<path d="M70.8553 88.506C71.9481 89.6909 73.6805 90.2427 75.2514 89.8978C74.9471 90.1047 74.6242 90.2677 74.289 90.3994C74.4131 90.3994 74.4877 90.3994 74.4877 90.3994H74.5001C74.5373 90.3994 77.3128 90.3743 80.9203 88.763C81.299 88.3493 81.5288 87.7725 81.4108 87.2207C81.2866 86.6439 80.8085 86.1925 80.2683 85.9543C79.7281 85.716 79.1383 85.6596 78.5546 85.6032L75.8412 85.3461C74.972 85.2646 74.0716 85.1831 73.2334 85.4527C72.4014 85.7223 71.6377 86.4308 71.5942 87.3148C71.5507 88.1235 72.3269 88.9135 73.0782 88.7944C73.1527 88.7756 73.221 88.763 73.2893 88.738C73.221 88.7693 73.1465 88.7819 73.0782 88.7944C72.3331 88.9762 71.5197 88.8759 70.8491 88.4997L70.8553 88.506Z" fill="white"/>
<path d="M98.0078 88.4375C98.3804 96.2682 97.8278 103.39 96.3562 109.622C95.0585 115.127 93.0405 119.967 90.3644 123.999C87.7069 128.011 84.9314 130.419 83.019 131.76C83.5406 131.597 83.9007 131.315 83.9318 131.29L84.0187 131.227C94.866 124.155 96.2134 115.497 96.2258 115.409L96.2817 115.021L96.3562 114.952C96.9461 113.083 100.405 101.403 99.2621 89.1585C98.8709 88.9077 98.4487 88.6695 98.0078 88.4375Z" fill="#ADE962"/>
<path d="M57.0651 101.528C58.251 102.713 59.9151 103.403 61.5791 103.396C60.6664 103.666 59.6853 103.71 58.7478 103.522C59.6481 103.886 60.5484 104.243 61.4487 104.607C62.2062 104.707 62.97 104.77 63.7275 104.82C64.634 104.882 65.5529 104.945 66.4595 104.82C67.1983 104.719 67.9186 104.487 68.6327 104.262C68.1297 104.976 67.3287 105.396 66.5464 105.785C67.4715 105.729 68.3657 105.647 69.2225 105.553C70.7189 103.19 72.1718 100.776 72.979 98.0987C72.3581 100.481 71.8365 102.882 71.3957 105.302C72.5195 105.177 73.5751 105.07 74.5002 105.07C75.4254 105.07 76.481 105.171 77.6048 105.302C77.164 102.882 76.6362 100.475 76.0215 98.0987C76.8287 100.776 78.2816 103.19 79.778 105.553C80.6348 105.647 81.529 105.729 82.4541 105.785C81.678 105.396 80.8708 104.976 80.3678 104.262C81.0819 104.487 81.7959 104.713 82.541 104.82C83.4414 104.945 84.3603 104.882 85.273 104.82C86.8191 104.707 88.3838 104.581 89.8554 104.099C91.3269 103.616 92.724 102.719 93.5311 101.384C93.3262 102.28 92.8047 103.077 92.1527 103.716C91.6436 104.212 91.0599 104.625 90.4514 104.989C92.6184 104.255 94.1334 102.694 94.9592 100.343C94.9592 100.331 94.9654 100.324 94.9716 100.312C95.2076 98.9451 95.2449 97.5532 95.0462 96.1739C95.0834 97.4027 94.773 98.6379 94.1769 99.71C94.3756 98.0109 94.5805 96.2868 94.3818 94.5877C94.1831 92.8886 93.9223 90.7632 92.3452 90.1363C90.7805 89.5156 89.0357 89.6723 87.3655 89.873C86.8874 89.9294 86.3969 89.9921 85.9685 90.2241C85.7263 90.3557 85.509 90.5438 85.3786 90.7883C85.2482 91.0328 85.2172 91.3401 85.3351 91.5908C85.5587 92.0736 86.1734 92.1802 86.6887 92.2868C88.4707 92.6567 90.1596 93.8103 91.1406 95.3526C89.9733 94.4498 88.4893 93.967 87.0178 94.0172C86.7135 94.0297 86.341 94.1112 86.2479 94.4059C86.1796 94.6253 86.3162 94.8698 86.5024 94.9952C86.6887 95.1269 86.9247 95.1708 87.142 95.2209C88.3093 95.4843 89.4207 95.967 90.4142 96.6379C89.4828 96.5438 88.5577 96.525 87.6263 96.619C86.1485 97.9921 83.907 98.4811 82.0567 97.6723C81.7401 97.5344 81.4296 97.3589 81.0881 97.2962C80.7466 97.2335 80.3554 97.3087 80.1443 97.5846C80.0263 97.7413 80.0077 97.9545 80.1319 98.0987C80.2561 98.2491 80.4548 98.3056 80.6411 98.362C82.2554 98.8134 83.9629 99.152 85.5897 98.7507C84.6645 99.0705 83.7146 99.315 82.7397 99.3275C81.7649 99.3401 80.7776 99.1394 79.9208 98.6755C79.7035 98.5563 79.4986 98.4247 79.2688 98.3369C79.0391 98.2491 78.7845 98.2053 78.5548 98.2805C78.2257 98.3871 77.9898 98.7319 78.0084 99.083C77.878 98.456 77.8904 97.7538 78.2257 97.2084C78.561 96.6629 79.1136 96.2554 79.7345 96.0987C79.4986 96.1927 79.2502 96.3432 79.095 96.5438C78.9398 96.7507 78.9087 97.0642 79.0764 97.246C79.244 97.4278 79.5545 97.4216 79.7594 97.2836C79.9643 97.1457 80.0822 96.9012 80.1505 96.6629C80.2188 96.4247 80.2437 96.1739 80.3182 95.9294C80.5231 95.2585 81.1067 94.7194 81.7897 94.5814C81.9822 94.5438 82.1809 94.5313 82.3672 94.4874C82.5597 94.4435 82.7521 94.362 82.8763 94.2115C83.0005 94.0611 83.0378 93.8228 82.926 93.6598C82.7894 93.4654 82.5038 93.4466 82.2678 93.4842C81.8642 93.5469 81.4731 93.6911 81.0695 93.7601C80.6659 93.8291 80.2188 93.7977 79.896 93.5469C79.5296 93.2585 79.0764 93.0705 78.6107 93.1269C78.1512 93.1833 77.7228 93.4027 77.2881 93.572C76.779 93.7727 76.2388 93.9106 75.6986 93.9858C75.4192 94.0234 75.1336 94.036 74.8542 93.9858C74.73 94.0109 74.5996 94.036 74.4754 94.0736C73.6186 94.3056 72.8486 94.8197 72.3022 95.5281C72.3581 95.1018 72.0911 94.6817 71.731 94.456C71.3709 94.2303 70.9362 94.1614 70.5078 94.1363C70.0856 94.1175 69.6571 94.1363 69.2349 94.0673C68.9431 94.0172 68.6575 93.9231 68.3905 93.7915C68.2291 93.804 68.0614 93.7915 67.9 93.7664C67.4964 93.6974 67.1052 93.5532 66.7016 93.4905C66.4657 93.4529 66.1801 93.4717 66.0435 93.6661C65.9317 93.8291 65.9689 94.0611 66.0931 94.2178C66.2173 94.3683 66.4098 94.4498 66.6023 94.4937C66.7948 94.5375 66.9934 94.5501 67.1797 94.5877C67.8627 94.7319 68.4464 95.2648 68.6513 95.9357C68.7258 96.1739 68.7506 96.4247 68.8189 96.6692C68.8872 96.9074 69.0052 97.152 69.2101 97.2899C69.415 97.4278 69.7255 97.4341 69.8931 97.2523C70.067 97.0642 70.0297 96.7507 69.8745 96.5501C69.7192 96.3432 69.4709 96.199 69.2349 96.1049C69.8496 96.2617 70.4022 96.6692 70.7437 97.2147C71.079 97.7601 71.0915 98.4623 70.9611 99.0893C70.9859 98.7382 70.75 98.3933 70.4147 98.2868C70.1787 98.2115 69.9241 98.2554 69.7006 98.3432C69.4709 98.431 69.266 98.5626 69.0487 98.6817C68.1918 99.1457 67.2046 99.3463 66.2297 99.3338C65.2549 99.3212 64.3049 99.0767 63.3797 98.757C65.0065 99.1582 66.714 98.8197 68.3284 98.3683C68.5147 98.3181 68.7134 98.2554 68.8375 98.1049C68.9617 97.9545 68.9431 97.7413 68.8251 97.5908C68.614 97.315 68.2228 97.2397 67.8813 97.3024C67.5398 97.3651 67.2294 97.5344 66.9127 97.6786C65.0686 98.4874 62.8271 98.0046 61.3432 96.6253C60.4118 96.5313 59.4866 96.5501 58.5553 96.6441C59.5487 95.9733 60.6602 95.4905 61.8275 95.2272C62.051 95.177 62.2807 95.1332 62.467 95.0015C62.6533 94.8698 62.7899 94.6316 62.7216 94.4122C62.6284 94.1175 62.2559 94.036 61.9517 94.0234C60.4801 93.9733 58.9961 94.456 57.8288 95.3589C58.8099 93.8165 60.4987 92.6567 62.2807 92.293C62.7961 92.1864 63.4108 92.0799 63.6343 91.5971C63.7523 91.3463 63.7213 91.0391 63.5909 90.7946C63.5536 90.7194 63.5039 90.6504 63.448 90.5877C61.3121 90.7131 59.2197 91.5595 57.6177 92.9827C58.3317 92.757 59.052 92.5313 59.7661 92.3056C57.3445 93.2147 55.7053 95.8792 55.9661 98.4748C55.5687 98.0611 55.2893 97.5407 55.1465 96.9827C55.1465 98.6692 55.8481 100.343 57.0341 101.528H57.0651Z" fill="white"/>
<path d="M66.9124 79.8672C70.4454 80.0616 73.345 80.3751 73.345 80.3751C64.4846 80.0992 57.4187 81.9237 57.4187 81.9237C63.0131 80.7575 70.6379 81.1086 70.6379 81.1086C63.7333 81.2089 58.1886 82.7262 55.4814 83.6227C55.6305 83.8484 55.8229 84.049 56.0465 84.2058C64.2797 82.0365 73.5748 82.3625 74.5123 82.4064C75.8908 82.35 95.4681 81.6541 102.993 89.3092C102.087 88.1305 100.659 86.5569 99.0135 85.7983C99.0135 85.7983 102.441 86.9331 104.875 89.6979C104.918 89.6791 104.956 89.6541 104.999 89.629C104.26 88.5443 102.776 86.77 100.479 85.792C100.479 85.792 102.938 86.3312 105.725 88.4566C105.732 88.3563 105.738 88.2559 105.725 88.1494C105.49 87.8798 105.21 87.5788 104.918 87.2653C93.2266 79.629 77.7659 79.0271 66.9186 79.8547L66.9124 79.8672Z" fill="#ADE962"/>
<path d="M112.736 76.6131C110.153 73.3842 104.925 66.8701 104.925 66.8701L110.991 76.0237L104.335 68.0488L110.917 78.3874L104.335 70.193L110.768 79.9422L107.197 76.4877L114.493 86.4751L114.288 82.9704C114.102 80.3059 113.431 78.1491 112.73 76.6131H112.736Z" fill="#ADE962"/>
<path d="M103.677 95.5786L103.708 95.5911C103.54 93.8858 102.845 92.3936 101.609 91.0645C102.044 99.0143 100.777 106.4 99.6968 111.027C103.875 104.619 103.726 97.3027 103.726 97.2149L103.677 95.5786Z" fill="#ADE962"/>
<path d="M46.8822 98.6819C46.5841 99.6286 46.6462 100.651 46.46 101.629C46.3544 102.168 46.1805 102.694 46.0439 103.221C46.609 105.597 47.5962 108.381 49.3099 111.014C48.54 107.716 47.6769 103.027 47.4037 97.7227C47.174 98.0173 46.9939 98.3496 46.8884 98.6819H46.8822Z" fill="#ADE962"/>
<path d="M58.6359 123.999C55.9597 119.967 53.948 115.127 52.6441 109.622C51.3464 104.136 50.7689 97.9609 50.8993 91.2148C50.3032 91.8732 49.8376 92.6443 49.5147 93.4719C49.3781 104.024 52.1225 113.29 52.6441 114.945L52.7248 115.02L52.7807 115.415C52.7931 115.497 54.1343 124.155 64.9878 131.227L65.0747 131.29C65.1492 131.346 65.4907 131.604 65.9812 131.754C64.0688 130.412 61.2996 128.005 58.6421 123.999H58.6359Z" fill="#ADE962"/>
<path d="M87.564 120.594C87.7627 121.866 87.4336 123.208 86.5954 124.18C89.2032 121.885 90.7244 118.412 90.5878 114.926C91.2398 114.029 91.8917 113.095 92.1525 112.017C92.4133 110.939 92.196 109.666 91.3453 108.97C90.712 108.456 89.8303 108.33 89.0293 108.462C88.2221 108.594 87.4771 108.945 86.7382 109.29C87.061 109.534 87.2784 109.917 87.328 110.318C84.8196 109.164 81.9261 108.888 79.25 109.559C78.598 108.738 77.7846 107.904 76.8471 107.453C75.9778 107.359 75.1955 107.296 74.5062 107.296C74.1461 107.296 73.7549 107.315 73.3451 107.346C71.0105 107.866 70.253 109.12 70.253 109.12C60.1073 107.459 61.1505 115.929 61.1505 115.929C61.9701 112.387 63.2553 111.39 63.2553 111.39C63.2553 111.39 60.1135 116.707 63.9632 122.763C67.8128 128.819 73.0036 130.305 73.0036 130.305C71.6314 130.387 69.3278 129.522 69.3278 129.522C74.7049 133.252 80.1503 129.522 80.1503 129.522C83.7081 127.766 86.4774 124.443 87.5764 120.594H87.564Z" fill="#ADE962"/>
<path d="M116.486 82.8262C116.089 77.1585 113.841 73.9171 113.152 73.0456C111.215 65.0143 108.004 58.3121 103.602 53.1334C100.026 48.9202 95.667 45.6977 90.6438 43.566C82.572 40.1303 75.5184 40.6193 74.5001 40.7133C73.4818 40.6193 66.4283 40.1303 58.3565 43.566C53.3333 45.7039 48.9745 48.9202 45.3981 53.1334C40.9958 58.3183 37.7857 65.0143 35.8485 73.0456C35.1593 73.9171 32.9116 77.1585 32.5142 82.8387L31.9678 92.2055C31.7567 93.961 32.4645 97.4469 36.6494 98.381C39.4684 99.008 41.7409 98.8324 43.1193 98.5879C43.3056 101.879 44.417 110.105 50.6758 116.13C51.0608 118.055 53.2712 126.218 63.7522 133.071C64.727 133.823 66.894 134.732 68.9306 133.478C69.8433 133.905 71.6253 134.563 73.9537 134.563C74.1338 134.563 74.3201 134.563 74.5063 134.55C74.6926 134.557 74.8789 134.563 75.059 134.563C77.3812 134.563 79.1694 133.905 80.0821 133.478C82.1187 134.738 84.2857 133.829 85.2605 133.077C95.7415 126.224 97.9519 118.061 98.3369 116.137C104.596 110.111 105.707 101.886 105.893 98.5942C107.272 98.8387 109.544 99.0205 112.363 98.3873C116.548 97.4531 117.256 93.9672 117.045 92.2117L116.499 82.8324L116.486 82.8262ZM101.758 54.3748C101.833 54.4563 101.907 54.544 101.975 54.6256C105.099 58.3183 107.595 62.8513 109.426 68.1303L101.752 57.9547V54.3748H101.758ZM99.8519 73.334C101.87 74.5566 103.571 76.2243 104.788 78.1679C103.956 78.1553 103.13 77.9359 102.41 77.5472C102.938 77.8419 103.478 78.1491 103.813 78.6318C104.149 79.1083 104.211 79.8105 103.782 80.2243C103.199 80.7886 102.168 80.4813 101.516 79.9923C100.864 79.5033 100.274 78.845 99.4483 78.7196C99.3552 79.3403 98.6039 79.7165 97.9333 79.6788C97.2627 79.6412 96.6604 79.3152 96.0706 79.0205C94.0278 78.0049 91.7987 77.3089 89.5137 76.9704C91.451 76.9704 93.4131 76.9453 95.2696 76.4437C97.1323 75.9484 98.9081 74.9202 99.8519 73.334ZM85.7635 73.2588C86.1608 73.2839 86.403 73.2901 86.403 73.2901C86.1857 73.2964 85.9746 73.2901 85.7635 73.2588C84.1056 73.1647 79.5978 72.7886 77.2135 71.4406L77.6916 69.7415C77.6916 69.7415 85.4033 73.0393 94.984 71.0958C94.984 71.0958 89.7559 72.845 84.8569 72.0299C84.8569 72.0299 88.9177 73.0268 92.0967 72.544C92.0967 72.544 87.9677 73.3904 83.4661 72.3936C83.4661 72.3936 84.4657 73.0958 85.7635 73.2525V73.2588ZM59.1202 45.6412C67.1486 42.1992 74.3139 42.914 74.3822 42.9265H74.6181C74.6864 42.9202 81.8517 42.1992 89.8801 45.6412C92.314 46.6882 94.5804 48.0049 96.6666 49.5848C85.4219 44.2368 75.7047 44.8701 74.5001 44.9767C73.2956 44.8701 63.5783 44.2368 52.3336 49.5848C54.4199 48.0049 56.6862 46.6882 59.1202 45.6412ZM50.5516 53.6224C62.7028 46.6318 74.2828 47.6475 74.4008 47.66H74.6057C74.7237 47.6475 86.2974 46.6318 98.4548 53.6224V65.7541C97.6601 66.0801 96.0271 66.6694 93.6987 67.0895C90.5693 67.6538 85.4965 68.0299 79.0887 66.6005C78.623 66.4751 78.0269 65.6287 77.5426 64.9516C76.7665 63.8544 75.8848 62.6067 74.5001 62.6067C73.1155 62.6067 72.2338 63.8544 71.4577 64.9516C70.9796 65.6287 70.3773 66.4751 69.9116 66.6005C59.53 68.9077 52.5075 66.5503 50.5454 65.7478V53.6161L50.5516 53.6224ZM76.425 68.9139C76.0027 68.2118 75.3259 68.1741 75.3259 68.1741C76.2387 68.7447 76.4933 70.682 76.4933 70.682C75.6426 68.9955 74.4939 68.4939 74.4939 68.4939V66.055C75.1955 66.218 75.7792 67.4531 75.7792 67.4531C75.5805 67.2337 75.121 67.077 75.121 67.077C75.9779 67.6663 76.4187 68.9014 76.4187 68.9014L76.425 68.9139ZM60.244 72.682C65.1803 72.9014 69.5701 71.0205 69.5701 71.0205C65.5652 72.124 60.244 71.798 60.244 71.798C62.5849 71.8732 66.1178 70.7259 66.1178 70.7259C67.8688 70.5754 69.4956 70.2682 70.9423 69.7165L72.0227 71.5409C67.7695 73.6161 62.5911 73.2588 62.5911 73.2588C66.0992 73.2839 70.2221 71.7165 70.2221 71.7165C65.1368 73.2964 60.2378 72.6882 60.2378 72.6882L60.244 72.682ZM47.0249 54.6256C47.0994 54.5378 47.1739 54.4563 47.2422 54.3748V57.9547L39.5677 68.1303C41.3994 62.845 43.8955 58.3183 47.0186 54.6256H47.0249ZM43.0138 74.8136L34.4949 86.4688L34.6998 82.9766C34.7557 82.1428 34.8674 81.3654 35.004 80.6318L41.8154 71.4406L37.2083 79.5597L44.3736 70.1804L39.7664 77.7227L43.0138 74.8074V74.8136ZM44.5723 82.2243C44.3612 82.0299 44.2059 81.7729 44.119 81.497C43.9327 80.9453 43.9948 80.3058 44.2928 79.8042C44.5847 79.3027 45.1062 78.939 45.6775 78.8324C45.1932 77.9547 45.5843 76.7948 46.3232 76.1302C47.0683 75.4657 48.1114 75.24 49.1049 75.2901C50.0984 75.3403 51.0608 75.6224 52.0232 75.8669C55.7176 76.7823 59.5797 76.9955 63.3486 76.4939C59.4368 77.3152 55.4568 77.8607 51.4644 77.9108C52.6627 78.2556 53.8921 78.4437 55.1339 78.5503C54.1777 78.8011 49.198 79.6412 44.8517 82.4312C44.7523 82.3748 44.653 82.3058 44.566 82.2243H44.5723ZM59.797 92.3121C59.0829 92.5378 58.3627 92.7635 57.6486 92.9892C59.2568 91.5597 61.3493 90.7133 63.479 90.5942C63.5349 90.6569 63.5845 90.7259 63.6218 90.8011C63.7522 91.0456 63.7832 91.3528 63.6653 91.6036C63.4417 92.0864 62.827 92.1929 62.3117 92.2995C60.5297 92.6694 58.8408 93.823 57.8597 95.3653C59.027 94.4625 60.511 93.9798 61.9826 94.0299C62.2868 94.0425 62.6594 94.124 62.7525 94.4186C62.8208 94.6381 62.6842 94.8826 62.4979 95.008C62.3117 95.1396 62.0757 95.1835 61.8584 95.2337C60.6911 95.497 59.5797 95.9798 58.5862 96.6506C59.5176 96.5566 60.4427 96.5378 61.3741 96.6318C62.8519 98.0049 65.0933 98.4939 66.9437 97.6851C67.2603 97.5472 67.5708 97.3716 67.9123 97.3089C68.2538 97.2462 68.6449 97.3215 68.8561 97.5973C68.974 97.7541 68.9927 97.9672 68.8685 98.1114C68.7443 98.2556 68.5456 98.3183 68.3593 98.3748C66.745 98.8262 65.0375 99.1647 63.4107 98.7635C64.3358 99.0832 65.2858 99.3277 66.2607 99.3403C67.2355 99.3528 68.2227 99.1522 69.0796 98.6882C69.2969 98.5691 69.5018 98.4375 69.7315 98.3497C69.9613 98.2619 70.2159 98.218 70.4456 98.2933C70.7747 98.3998 71.0106 98.7447 70.992 99.0958C71.1224 98.4688 71.11 97.7666 70.7747 97.2212C70.4394 96.6757 69.8868 96.2682 69.2659 96.1114C69.5018 96.2055 69.7502 96.3559 69.9054 96.5566C70.0606 96.7635 70.0917 97.077 69.924 97.2588C69.7564 97.4406 69.4459 97.4343 69.241 97.2964C69.0361 97.1585 68.9182 96.9139 68.8498 96.6757C68.7816 96.4375 68.7567 96.1867 68.6822 95.9422C68.4773 95.2713 67.8937 94.7321 67.2106 94.5942C67.0182 94.5566 66.8195 94.544 66.6332 94.5002C66.4407 94.4563 66.2482 94.3748 66.1241 94.2243C65.9999 94.0738 65.9626 93.8356 66.0744 93.6726C66.211 93.4782 66.4966 93.4594 66.7325 93.497C67.1361 93.5597 67.5273 93.7039 67.9309 93.7729C68.0923 93.798 68.2538 93.8105 68.4214 93.798C68.6884 93.9296 68.9678 94.0237 69.2659 94.0738C69.6881 94.1428 70.1103 94.124 70.5387 94.1428C70.9609 94.1616 71.4018 94.2306 71.7619 94.4625C72.122 94.6882 72.389 95.1083 72.3332 95.5346C72.8733 94.8262 73.6495 94.3121 74.5063 94.0801C74.6305 94.0487 74.7547 94.0174 74.8851 93.9923C75.1583 94.0487 75.4501 94.0299 75.7295 93.9923C76.2759 93.9171 76.8099 93.7791 77.3191 93.5785C77.7537 93.4092 78.1759 93.1898 78.6416 93.1334C79.1073 93.077 79.5543 93.265 79.9269 93.5534C80.2498 93.8042 80.6968 93.8356 81.1004 93.7666C81.504 93.6976 81.8952 93.5534 82.2988 93.4907C82.5347 93.4531 82.8203 93.4719 82.9569 93.6663C83.0687 93.8293 83.0314 94.0613 82.9073 94.218C82.7831 94.3685 82.5906 94.45 82.3981 94.4939C82.2056 94.5378 82.0069 94.5503 81.8207 94.5879C81.1377 94.7321 80.554 95.265 80.3491 95.9359C80.2746 96.1741 80.2498 96.4249 80.1815 96.6694C80.1132 96.9077 79.9952 97.1522 79.7903 97.2901C79.5854 97.4281 79.2749 97.4343 79.1073 97.2525C78.9334 97.0644 78.9707 96.7509 79.1259 96.5503C79.2811 96.3434 79.5295 96.1992 79.7655 96.1052C79.1508 96.2619 78.5981 96.6694 78.2566 97.2149C77.9213 97.7603 77.9089 98.4625 78.0393 99.0895C78.0145 98.7384 78.2504 98.3936 78.5857 98.287C78.8217 98.2117 79.0762 98.2556 79.2998 98.3434C79.5295 98.4312 79.7344 98.5628 79.9517 98.682C80.8086 99.1459 81.7958 99.3465 82.7707 99.334C83.7455 99.3215 84.6955 99.077 85.6206 98.7572C83.9938 99.1585 82.2863 98.8199 80.672 98.3685C80.4857 98.3183 80.287 98.2556 80.1628 98.1052C80.0387 97.9547 80.0573 97.7415 80.1753 97.5911C80.3864 97.3152 80.7775 97.24 81.119 97.3027C81.4605 97.3654 81.771 97.5346 82.0877 97.6788C83.9318 98.4876 86.1732 98.0049 87.6572 96.6255C88.5886 96.5315 89.5137 96.5503 90.4451 96.6444C89.4517 95.9735 88.3402 95.4907 87.1729 95.2274C86.9494 95.1773 86.7196 95.1334 86.5334 95.0017C86.3471 94.8701 86.2105 94.6318 86.2788 94.4124C86.3719 94.1177 86.7445 94.0362 87.0487 94.0237C88.5203 93.9735 90.0043 94.4563 91.1716 95.3591C90.1905 93.8168 88.5017 92.6569 86.7196 92.2933C86.2043 92.1867 85.5896 92.0801 85.3661 91.5973C85.2481 91.3465 85.2791 91.0393 85.4095 90.7948C85.5399 90.5503 85.7572 90.3622 85.9994 90.2306C86.4216 89.9986 86.9121 89.9359 87.3964 89.8795C89.0667 89.6788 90.8114 89.5221 92.3761 90.1428C93.9533 90.7697 94.2202 92.8889 94.4127 94.5942C94.6114 96.2933 94.4127 98.0174 94.2078 99.7164C94.8101 98.6443 95.1144 97.4092 95.0771 96.1804C95.2758 97.5597 95.2385 98.9516 95.0026 100.318C95.0026 100.331 95.0026 100.337 94.9902 100.35C94.1644 102.701 92.6493 104.262 90.4824 104.995C91.0909 104.626 91.6745 104.218 92.1837 103.723C92.8356 103.083 93.3634 102.287 93.5621 101.39C92.7549 102.726 91.3578 103.616 89.8863 104.105C88.4147 104.594 86.85 104.72 85.304 104.826C84.3974 104.889 83.4785 104.952 82.572 104.826C81.8331 104.726 81.1128 104.494 80.3988 104.268C80.9017 104.983 81.7027 105.403 82.485 105.792C81.5599 105.735 80.6658 105.654 79.8089 105.56C78.3125 103.196 76.8596 100.782 76.0524 98.1052C76.6733 100.488 77.1949 102.889 77.6357 105.309C76.5119 105.184 75.4563 105.077 74.5312 105.077C73.606 105.077 72.5505 105.177 71.4266 105.309C71.8675 102.889 72.3952 100.481 73.0099 98.1052C72.2028 100.782 70.7498 103.196 69.2534 105.56C68.3966 105.654 67.5025 105.735 66.5773 105.792C67.3535 105.403 68.1606 104.983 68.6636 104.268C67.9495 104.494 67.2355 104.72 66.4904 104.826C65.5901 104.952 64.6711 104.889 63.7584 104.826C63.0009 104.77 62.2372 104.713 61.4796 104.613C60.5793 104.249 59.679 103.892 58.7787 103.528C59.7163 103.716 60.6911 103.673 61.61 103.403C59.9398 103.409 58.2757 102.726 57.096 101.535C55.9101 100.35 55.2147 98.6757 55.2085 96.9892C55.3451 97.5472 55.6307 98.0675 56.0281 98.4813C55.7673 95.892 57.4127 93.2212 59.828 92.3121H59.797ZM71.6005 87.3277C71.6502 86.4437 72.4077 85.7353 73.2397 85.4657C74.0717 85.1961 74.972 85.2776 75.8475 85.3591L78.5609 85.6161C79.1445 85.6726 79.7406 85.729 80.2746 85.9672C80.8148 86.2055 81.2929 86.6506 81.4171 87.2337C81.535 87.7854 81.2991 88.3559 80.9266 88.776C77.3191 90.3873 74.5498 90.4124 74.5063 90.4124H74.4939C74.4939 90.4124 74.4194 90.4124 74.2952 90.4124C74.6305 90.2807 74.9534 90.1114 75.2576 89.9108C73.6867 90.2556 71.9544 89.7102 70.8616 88.519C71.5322 88.8951 72.3456 89.0017 73.0907 88.8136C72.3394 88.9328 71.5632 88.1428 71.6067 87.334L71.6005 87.3277ZM46.0438 103.221C46.1866 102.688 46.3605 102.168 46.4598 101.629C46.6461 100.651 46.584 99.6287 46.882 98.682C46.9876 98.3497 47.1677 98.0174 47.3974 97.7227C47.6706 103.027 48.5337 107.723 49.3036 111.014C47.5899 108.381 46.6088 105.597 46.0376 103.221H46.0438ZM65.0685 131.29L64.9816 131.227C54.1343 124.155 52.7869 115.497 52.7745 115.416L52.7186 115.021L52.6379 114.945C52.1163 113.29 49.3719 104.024 49.5085 93.4719C49.8314 92.6444 50.3033 91.8732 50.8931 91.2149C50.7627 97.961 51.3402 104.13 52.6379 109.622C53.9356 115.127 55.9535 119.967 58.6297 123.999C61.2872 128.005 64.0564 130.412 65.9688 131.754C65.4845 131.597 65.1368 131.347 65.0623 131.29H65.0685ZM80.138 129.516C80.138 129.516 74.6864 133.246 69.3155 129.516C69.3155 129.516 71.6191 130.381 72.9913 130.3C72.9913 130.3 67.8067 128.814 63.9509 122.757C60.1012 116.701 63.243 111.384 63.243 111.384C63.243 111.384 61.964 112.381 61.1381 115.923C61.1381 115.923 60.095 107.453 70.2407 109.115C70.2407 109.115 70.9982 107.861 73.3328 107.34C73.7426 107.309 74.1338 107.29 74.4939 107.29C75.1831 107.29 75.9655 107.353 76.8348 107.447C77.7723 107.892 78.5919 108.732 79.2377 109.553C81.9138 108.889 84.8072 109.158 87.3157 110.312C87.2661 109.911 87.0425 109.528 86.7259 109.284C87.4647 108.939 88.216 108.588 89.017 108.456C89.8242 108.325 90.6997 108.45 91.333 108.964C92.1899 109.66 92.4072 110.933 92.1402 112.011C91.8794 113.089 91.2213 114.024 90.5755 114.92C90.7121 118.412 89.1909 121.879 86.583 124.174C87.4213 123.202 87.7441 121.861 87.5517 120.588C86.4527 124.431 83.6896 127.76 80.1256 129.516H80.138ZM96.3562 114.952L96.2817 115.021L96.2258 115.409C96.2134 115.497 94.8722 124.155 84.0187 131.227L83.9318 131.29C83.9318 131.29 83.5406 131.597 83.019 131.76C84.9314 130.419 87.7007 128.011 90.3644 123.999C93.0405 119.967 95.0523 115.127 96.3562 109.622C97.8277 103.39 98.3803 96.2744 98.0078 88.4375C98.4486 88.6694 98.8709 88.9077 99.262 89.1585C100.405 101.403 96.9398 113.083 96.3562 114.952ZM99.6967 111.021C100.777 106.394 102.044 99.0143 101.609 91.0581C102.845 92.3873 103.54 93.8795 103.708 95.5848L103.677 95.5722L103.726 97.2086C103.726 97.2964 103.882 104.613 99.6967 111.021ZM105.707 88.4751C102.919 86.3497 100.46 85.8105 100.46 85.8105C102.764 86.7886 104.242 88.5628 104.981 89.6475C104.943 89.6726 104.9 89.6976 104.856 89.7165C102.422 86.9453 98.995 85.8168 98.995 85.8168C100.64 86.5691 102.069 88.1428 102.975 89.3277C95.4496 81.6788 75.8661 82.3685 74.4939 82.4249C73.5563 82.3873 64.2675 82.055 56.0281 84.2243C55.8045 84.0676 55.6182 83.8669 55.463 83.6412C58.1702 82.7447 63.7149 81.2274 70.6194 81.1271C70.6194 81.1271 62.9947 80.776 57.4003 81.9422C57.4003 81.9422 64.4662 80.1177 73.3266 80.3936C73.3266 80.3936 70.4332 80.0738 66.894 79.8857C77.7413 79.0644 93.202 79.6663 104.894 87.2964C105.192 87.6161 105.465 87.9171 105.701 88.1804C105.701 88.2807 105.701 88.3873 105.701 88.4876L105.707 88.4751ZM107.203 76.4813L110.774 79.9359L104.341 70.1867L110.923 78.381L104.341 68.0425L110.997 76.0174L104.931 66.8638C104.931 66.8638 110.159 73.3779 112.742 76.6067C113.444 78.1428 114.114 80.2933 114.3 82.9641L114.505 86.4688L107.21 76.4813H107.203Z" fill="#181B10"/>
<path d="M73.0845 88.8016C73.1594 88.7891 73.2281 88.7702 73.2969 88.7451C73.2281 88.7702 73.1532 88.7828 73.0845 88.8016Z" fill="black"/>
<path d="M85.7632 73.2588C85.9681 73.2839 86.1792 73.2965 86.4027 73.2902C86.4027 73.2902 86.1668 73.2839 85.7632 73.2588Z" fill="black"/>
<path d="M117.56 4.19922H112.227H96.3561V5.39671L95.164 4.19922H84.2794L80.467 8.05502L76.6546 4.19922H65.7266L61.908 8.06129L58.0584 4.19922H45.9879H40.6543H33.7684V9.10831L32.806 4.19922H21.4744L14.4395 40.0299H26.8577L27.0936 38.8638L27.2985 40.0299H33.7684H39.8409H40.6543H45.9879H65.0747L64.8201 39.1146L65.7266 40.0299H76.6546L80.467 36.1804L84.2794 40.0299H95.164L96.3561 38.8387V40.0299H108.576V28.287H113.034V16.5378H117.299V40.0299H129.519V16.5378H134.561V4.19922H117.56Z" fill="#181B10"/>
<path d="M30.1308 36.6064L29.7707 34.5939H24.4805L24.0832 36.6064H18.5757L24.2632 7.62207H30.0253L35.7128 36.6064H30.1308ZM28.6841 29.1393L27.1256 21.1957L25.5671 29.1393H28.6841Z" fill="white"/>
<path d="M37.1646 7.62207H42.6037V36.6064H37.1646V7.62207Z" fill="white"/>
<path d="M57.2013 24.2741L60.6101 36.6064H54.9598L51.7373 24.8572H49.4896V36.6064H44.0566V7.62207H56.6673L61.2 12.1613V20.2866L57.2137 24.2741H57.2013ZM55.7546 17.76V14.6503L54.1588 13.1142H49.4834V19.3713H54.1588L55.7546 17.76Z" fill="white"/>
<path d="M79.7466 32.0672L75.2512 36.6064H67.1359L62.6405 32.0672V27.4591H68.0735V29.5468L69.6319 31.1205H72.7489L74.3446 29.5468V26.4371L72.7489 24.8634H67.1669L62.6343 20.2866V12.1613L67.1297 7.62207H75.245L79.7403 12.1613V16.7381H74.3384V14.6503L72.7427 13.1142H69.6257L68.0672 14.6879V17.76L69.6257 19.3713H75.245L79.7403 23.9105V32.0735L79.7466 32.0672Z" fill="white"/>
<path d="M93.7671 36.6064H85.6829L81.1875 32.0672V12.1613L85.6829 7.62207H93.7671L98.2998 12.1613V32.0672L93.7671 36.6064ZM92.8606 29.5468V14.6566L91.3021 13.1205H88.1852L86.5894 14.6942V29.5531L88.1852 31.1268H91.3021L92.8606 29.5531V29.5468Z" fill="white"/>
<path d="M114.17 13.1142H105.185V19.3713H109.644V24.8635H105.185V36.6127H99.7524V7.62207H114.176V13.108L114.17 13.1142Z" fill="white"/>
<path d="M131.164 13.1138H126.129V36.606H120.696V13.1138H115.623V7.62793H131.171V13.1138H131.164Z" fill="white"/>
<path d="M18.5684 36.6063L21.437 33.9166L22.1262 31.9668H32.1228L29.7696 34.5938H24.4794L24.082 36.6063H18.5684Z" fill="#BCBEC0"/>
<path d="M25.5658 29.1389L22.126 31.9665L26.342 10.4492L27.1243 21.2016L25.5658 29.1389Z" fill="#BCBEC0"/>
<path d="M30.1299 36.6064L32.4894 33.7161L27.9009 10.4497L30.0244 7.62207L35.7119 36.6064H30.1299Z" fill="#BCBEC0"/>
<path d="M37.1646 36.6064L39.8779 33.8164V10.4497L42.5975 7.62207V36.6064H37.1646Z" fill="#BCBEC0"/>
<path d="M44.0503 36.6062L46.7823 33.8162V22.1172H54.5561L51.731 24.857H49.4833V36.6062H44.0503Z" fill="#BCBEC0"/>
<path d="M49.4837 19.3717L46.7827 22.1177V10.4375H56.2205L54.1591 13.1146H49.4837V19.3717Z" fill="#BCBEC0"/>
<path d="M54.9539 36.6063L57.2637 33.8163L54.2896 24.2865L58.4124 19.9229V13.7473L61.1879 12.1611V20.2865L57.2016 24.274L60.6104 36.6063H54.9539Z" fill="#BCBEC0"/>
<path d="M65.3228 27.459H68.0734V29.5468L65.3228 31.2458V27.459Z" fill="#BCBEC0"/>
<path d="M67.1299 36.6061L68.4152 33.8161H73.9661L77.021 30.7628V25.3898L79.7468 23.9102V32.0669L75.2514 36.6061H67.1299Z" fill="#BCBEC0"/>
<path d="M68.0734 17.7604L65.3228 19.5535V13.4156L68.5825 10.4375H74.7295L72.7488 13.1146H69.6319L68.0734 14.6883V17.7604Z" fill="#BCBEC0"/>
<path d="M74.3447 16.7379L77.0208 14.5561V13.2771L79.7466 12.1611V16.7379H74.3447Z" fill="#BCBEC0"/>
<path d="M67.167 24.857L68.8807 22.1172H74.3882L72.749 24.857H67.167Z" fill="#BCBEC0"/>
<path d="M85.689 36.6063L87.918 33.8163H92.7363L95.6297 30.763V13.5843L98.2996 12.1611V32.0671L93.767 36.6063H85.689Z" fill="#BCBEC0"/>
<path d="M86.5954 29.5472L83.8696 31.2964V13.6475L87.2225 10.4375H93.1398L91.3019 13.1146H88.185L86.5954 14.6883V29.5472Z" fill="#BCBEC0"/>
<path d="M99.7461 36.6062L102.379 33.8162V22.1172H106.961L109.643 19.3711V24.857H105.185V36.6062H99.7461Z" fill="#BCBEC0"/>
<path d="M105.185 19.3713L102.379 22.1174V10.4371H111.55L114.17 7.62207V13.1142H105.185V19.3713Z" fill="#BCBEC0"/>
<path d="M120.696 36.6064L123.391 33.8164V10.4371H128.345L131.164 7.62207V13.1142H126.129V36.6064H120.696Z" fill="#BCBEC0"/>
</svg>
